<svg width="109" height="34" fill="none" xmlns="http://www.w3.org/2000/svg"><path d="M33.892 16.982C33.526-.434 9.556-6.924.33 9.395c.408.285.972.67 1.38.955a16.202 16.202 0 00-1.437 4.347C.091 15.666 0 16.647 0 17.632 0 26.674 7.591 34 16.953 34c9.363 0 16.954-7.326 16.954-16.363 0-.22 0-.438-.015-.655zM4.184 19.905c-.222 1.772-.083 2.323-.085 2.536l-.407.143c-.154-.29-.547-1.318-.719-2.699-.444-5.27 3.279-10.019 8.941-10.903 5.194-.734 10.16 2.376 11.324 6.734l-.409.143a11.75 11.75 0 00-1.123-1.25c-6.264-6.072-16.109-3.286-17.522 5.294v.002zm16.131 2.947a4.58 4.58 0 01-1.743 1.461 4.756 4.756 0 01-4.464-.183 4.542 4.542 0 01-1.608-1.6 4.355 4.355 0 01-.61-2.15 4.348 4.348 0 01.543-2.168 4.53 4.53 0 011.56-1.644 4.73 4.73 0 012.186-.71 3.856 3.856 0 012.15.522 3.674 3.674 0 011.47 1.602c.312.666.409 1.406.278 2.126a3.588 3.588 0 01-1.01 1.906l1.248.838zm9.64.173c-2.445 5.359-7.479 8.163-12.855 8.098-10.312-.489-13.31-11.985-6.42-16.137l.303.292c-.117.15-.517.462-1.161 1.68-.75 1.478-.98 2.952-.886 3.874.537 8.035 12.183 9.669 16.194 1.725C30.238 11.661 16.701.597 4.681 9.05l-.277-.268c3.163-4.787 9.337-6.93 15.235-5.503 9.021 2.185 13.864 11.266 10.32 19.744l-.002.002zm18.965-12.43v7.556c0 3.003-1.898 5.259-5.387 5.259-3.488 0-5.385-2.25-5.385-5.26v-7.555h2.832v7.338c0 1.834.895 2.878 2.553 2.878 1.66 0 2.554-1.044 2.554-2.878v-7.338h2.832zm10.533 8.958c0 2.177-1.771 3.743-4.622 3.743h-4.51V10.699h4.342c2.515 0 4.175 1.169 4.175 3.04 0 1.421-.69 2.285-1.714 2.698 1.378.509 2.328 1.426 2.328 3.118l.001-.002zm-6.298-6.44v2.664h1.49c.876 0 1.472-.49 1.472-1.331s-.596-1.332-1.471-1.332l-1.49-.001zm1.565 7.772c1.21 0 1.898-.54 1.898-1.582 0-1.044-.69-1.583-1.898-1.583h-1.566v3.167l1.566-.002zm5.831-10.183h2.834V23.3H60.55l.001-12.597zm9.678 5.092c2.235.756 3.392 1.727 3.392 3.669 0 2.609-2.069 4.048-4.51 4.048-2.254 0-3.987-.971-4.715-2.77l2.255-1.62c.41 1.134 1.472 1.835 2.53 1.835.931 0 1.603-.489 1.603-1.295 0-.756-.506-1.223-2.367-1.871-2.013-.702-3.503-1.673-3.503-3.76 0-2.014 1.733-3.547 4.248-3.547 1.994 0 3.543.775 4.268 2.303l-2.255 1.512c-.426-.932-1.097-1.457-2.122-1.457-.86 0-1.493.453-1.493 1.101 0 .734.71 1.187 2.667 1.852h.002zM87.677 17c0 3.706-2.758 6.512-6.635 6.512-3.969 0-6.635-2.753-6.635-6.08 0-2.16.876-3.725 2.163-4.75l-.448-.431c.988-.99 2.795-1.764 4.919-1.764 3.875 0 6.636 2.844 6.636 6.513zm-2.87 0c0-2.267-1.49-3.923-3.764-3.923-1.323 0-2.31.49-2.91 1.116l.447.432c-.69.557-1.304 1.33-1.304 2.716 0 1.907 1.391 3.58 3.764 3.58 2.274 0 3.765-1.655 3.765-3.921h.002zm6.858-3.706v2.914H97.2v2.087h-5.54v5h-2.83V10.7h8.925v2.595h-6.09zm17.332 0h-3.652v10.003h-2.832V13.294h-3.669v-2.59H109l-.003 2.59z" fill="#fff"/></svg>